<svg width="350" height="346" viewBox="0 0 350 346" fill="none" xmlns="http://www.w3.org/2000/svg">
    <ellipse cx="175" cy="173" rx="175" ry="173" fill="#40FF93"/>
    <g clip-path="url(#8cuss7xm4a)" fill="#000">
        <path d="M76.072 204.078h17.362c7.997 0 13.688-4.394 14.697-10.446.865-5.187-2.377-8.645-7.132-8.789l.072-.36c4.394-.865 7.78-4.035 8.501-8.069.936-5.62-2.954-9.222-11.383-9.222H82.196l-6.124 36.886zm11.383-7.997 1.225-7.78h4.826c3.098 0 4.683 1.441 4.25 4.034-.36 2.45-2.305 3.746-5.618 3.746h-4.683zm2.305-13.976 1.153-7.06h4.25c2.45 0 4.107 1.225 3.746 3.53-.36 2.233-2.449 3.53-5.042 3.53H89.76zm46.97-14.913-3.782 22.766c-.541 3.422-3.422 5.907-6.88 5.907-3.422 0-5.476-2.485-4.935-5.907l3.782-22.766h-10.014l-3.926 23.63c-1.369 8.429 4.106 13.688 13.652 13.688 9.473 0 16.822-5.259 18.191-13.688l3.926-23.63H136.73zm45.515 0h-10.014l-3.169 19.308h-.289l-9.942-19.308h-8.501l-6.123 36.886h10.014l3.242-19.379h.216l10.086 19.379h8.357l6.123-36.886zm11.849 36.886c11.239 0 19.236-6.628 21.109-17.938 1.945-11.743-4.179-18.948-15.561-18.948h-13.833l-6.123 36.886h14.408zm-2.989-8.501 3.314-19.884h3.71c5.763 0 8.429 1.946 7.204 9.438-1.297 7.925-5.115 10.446-10.59 10.446h-3.638zm24.605 8.501h24.926l1.369-8.069h-14.913l4.755-28.817h-10.014l-6.123 36.886zm27.802 0h26.511l1.369-8.069h-16.498l1.009-6.339h15.201l1.369-8.069h-15.201l1.008-6.34h16.57l1.369-8.069h-26.584l-6.123 36.886zM118.106 131.919h9.582c1.224-7.276-3.603-12.031-12.536-12.031-8.789 0-15.705 4.683-16.858 11.743-.936 5.763 2.522 8.933 8.789 10.374l3.531.793c3.962.864 5.259 1.945 4.97 3.602-.288 1.801-2.161 3.098-5.403 3.098-3.818 0-5.835-1.801-5.403-5.187h-9.51c-1.512 9.221 4.107 13.399 13.689 13.399 9.365 0 15.633-4.034 16.858-11.31.936-5.62-1.802-9.582-9.654-11.311l-2.882-.648c-3.386-.721-4.827-1.801-4.395-3.53.289-1.657 1.802-2.81 4.899-2.81 3.242 0 4.539 1.441 4.323 3.818zm36.497-11.527-3.783 22.766c-.54 3.422-3.422 5.907-6.88 5.907-3.422 0-5.475-2.485-4.935-5.907l3.783-22.766h-10.014l-3.927 23.63c-1.368 8.429 4.107 13.688 13.652 13.688 9.474 0 16.822-5.259 18.191-13.688l3.926-23.63h-10.013zm7.476 36.886h10.014l1.837-10.95h5.512c8.501 0 14.913-4.899 16.209-12.896 1.297-7.853-3.314-13.04-11.526-13.04h-15.922l-6.124 36.886zm13.148-18.731 1.693-10.158h3.53c3.53 0 5.259 1.873 4.755 5.043-.504 3.17-2.882 5.115-6.484 5.115h-3.494zm18.963 18.731h26.512l1.369-8.069h-16.498l1.009-6.339h15.201l1.369-8.069h-15.201l1.008-6.34h16.57l1.369-8.069h-26.584l-6.124 36.886zm30.378 0h10.014l2.035-12.175h3.458l4.449 12.175h10.878l-5.205-13.76c4.233-1.891 7.186-5.475 8.015-10.59 1.297-7.853-3.386-12.536-11.599-12.536h-15.921l-6.124 36.886zm13.346-19.956 1.495-8.933h3.53c3.458 0 5.331 1.369 4.827 4.539-.505 3.17-2.81 4.394-6.34 4.394h-3.512z"/>
    </g>
    <g clip-path="url(#sjp8oh9zxb)">
        <rect x="107" y="228.278" width="136" height="43" rx="21.5" fill="#000"/>
        <path d="M135.129 253.014c0 1.396-.505 2.492-1.515 3.287-1.01.795-2.402 1.192-4.178 1.192-1.776 0-3.23-.276-4.362-.827v-2.428c.716.337 1.475.602 2.278.795.809.193 1.561.29 2.255.29 1.017 0 1.766-.193 2.246-.58.487-.387.73-.906.73-1.558 0-.587-.222-1.085-.666-1.493-.444-.408-1.361-.891-2.75-1.45-1.432-.58-2.442-1.242-3.029-1.987-.588-.745-.881-1.64-.881-2.686 0-1.31.465-2.342 1.396-3.094.931-.752 2.181-1.127 3.749-1.127 1.504 0 3.001.329 4.491.988l-.817 2.095c-1.396-.588-2.642-.881-3.738-.881-.831 0-1.461.182-1.891.548-.429.358-.644.834-.644 1.428 0 .408.086.759.258 1.053.171.286.454.559.848.816.394.258 1.103.598 2.127 1.021 1.153.48 1.998.927 2.535 1.343.537.415.931.884 1.182 1.407.251.523.376 1.139.376 1.848zm9.948 4.264-.505-1.654h-.086c-.572.723-1.149 1.217-1.729 1.482-.58.258-1.325.387-2.234.387-1.168 0-2.081-.315-2.74-.945-.651-.631-.977-1.522-.977-2.675 0-1.225.455-2.149 1.364-2.772.91-.623 2.295-.963 4.157-1.02l2.052-.065v-.633c0-.759-.179-1.325-.537-1.698-.351-.379-.899-.569-1.644-.569-.608 0-1.192.09-1.751.269-.558.179-1.095.39-1.611.633l-.816-1.804a8.612 8.612 0 0 1 2.116-.763 9.552 9.552 0 0 1 2.17-.269c1.511 0 2.65.33 3.416.989.773.659 1.16 1.693 1.16 3.104v8.003h-1.805zm-3.759-1.719c.916 0 1.65-.254 2.202-.762.558-.516.838-1.236.838-2.159v-1.032l-1.526.065c-1.189.043-2.055.243-2.599.601-.538.351-.806.892-.806 1.622 0 .53.157.942.473 1.236.315.286.787.429 1.418.429zm11.538 1.719-4.512-11.881h2.664l2.417 6.908c.416 1.16.666 2.098.752 2.814h.086c.064-.516.315-1.454.752-2.814l2.417-6.908h2.686l-4.534 11.881h-2.728zm13.998.215c-1.848 0-3.294-.537-4.34-1.611-1.038-1.082-1.557-2.568-1.557-4.458 0-1.941.483-3.466 1.45-4.576.967-1.111 2.295-1.666 3.985-1.666 1.568 0 2.807.477 3.717 1.429.909.953 1.364 2.263 1.364 3.932v1.364h-7.917c.036 1.153.348 2.041.935 2.664.587.616 1.414.924 2.481.924.702 0 1.354-.064 1.955-.193a10.5 10.5 0 0 0 1.955-.666v2.051a7.706 7.706 0 0 1-1.869.623c-.63.122-1.35.183-2.159.183zm-.462-10.398c-.802 0-1.447.254-1.933.762-.48.509-.767 1.25-.86 2.224h5.393c-.015-.981-.251-1.722-.709-2.224-.459-.508-1.089-.762-1.891-.762zm22.765 5.317c0 1.038-.379 1.894-1.139 2.567-.759.674-1.854 1.089-3.287 1.246v2.331h-1.428v-2.266c-1.776-.029-3.234-.301-4.372-.817v-2.266c.615.301 1.335.555 2.159.763.823.2 1.561.304 2.213.311v-4.017l-.903-.333c-1.174-.452-2.034-.989-2.578-1.612-.537-.63-.806-1.407-.806-2.331 0-.988.384-1.801 1.15-2.438.773-.638 1.819-1.024 3.137-1.161v-1.804h1.428v1.772c1.454.05 2.833.344 4.136.881l-.784 1.966a11.523 11.523 0 0 0-3.352-.795v3.91l.817.312c1.36.522 2.302 1.074 2.825 1.654.523.58.784 1.289.784 2.127zm-2.535.161c0-.415-.147-.755-.44-1.02-.287-.273-.77-.534-1.451-.785v3.427c1.261-.193 1.891-.734 1.891-1.622zm-5.081-6.606c0 .408.125.748.376 1.02.258.272.72.541 1.386.806v-3.341c-.573.086-1.01.261-1.311.526a1.264 1.264 0 0 0-.451.989zm19.53-.785c0 .996-.29 1.827-.87 2.493-.58.659-1.396 1.103-2.449 1.332v.086c1.26.157 2.206.551 2.836 1.181.63.623.945 1.454.945 2.492 0 1.512-.533 2.679-1.6 3.502-1.067.817-2.586 1.225-4.555 1.225-1.74 0-3.208-.283-4.404-.849v-2.245c.666.33 1.371.584 2.116.763a9.192 9.192 0 0 0 2.148.269c1.218 0 2.127-.226 2.729-.677.601-.451.902-1.15.902-2.095 0-.838-.333-1.454-.999-1.848-.666-.394-1.711-.59-3.137-.59h-1.364v-2.052h1.386c2.506 0 3.76-.867 3.76-2.6 0-.673-.219-1.192-.656-1.557-.436-.366-1.081-.548-1.933-.548a5.74 5.74 0 0 0-1.719.258c-.551.164-1.203.49-1.955.977l-1.235-1.762c1.439-1.06 3.111-1.589 5.016-1.589 1.583 0 2.818.34 3.706 1.02.888.68 1.332 1.619 1.332 2.814zm7.585 2.289c1.583 0 2.836.418 3.76 1.256.924.838 1.386 1.981 1.386 3.427 0 1.676-.526 2.986-1.579 3.932-1.046.938-2.535 1.407-4.469 1.407-1.754 0-3.133-.283-4.136-.849v-2.288a7.56 7.56 0 0 0 1.998.763 9.091 9.091 0 0 0 2.095.269c1.139 0 2.005-.255 2.6-.763.594-.509.891-1.253.891-2.235 0-1.876-1.196-2.814-3.588-2.814-.336 0-.751.036-1.246.107-.494.065-.927.14-1.299.226l-1.128-.666.601-7.67h8.164v2.245h-5.94l-.355 3.889c.251-.043.555-.093.913-.151.366-.057.81-.085 1.332-.085zm18.188 6.38h-2.116v3.427h-2.46v-3.427h-7.176v-1.944l7.176-10.377h2.46v10.227h2.116v2.094zm-4.576-2.094v-3.943c0-1.403.036-2.553.107-3.448h-.086c-.2.473-.515 1.046-.945 1.719l-3.899 5.672h4.823z" fill="#40FF93"/>
    </g>
    <defs>
        <clipPath id="8cuss7xm4a">
            <path fill="#fff" transform="translate(76 108.278)" d="M0 0h198v107.8H0z"/>
        </clipPath>
        <clipPath id="sjp8oh9zxb">
            <path fill="#fff" transform="translate(107 228.278)" d="M0 0h136v43H0z"/>
        </clipPath>
    </defs>
</svg>
