<svg width="350" height="356" viewBox="0 0 350 356" fill="none" xmlns="http://www.w3.org/2000/svg">
    <ellipse cx="175" cy="177.745" rx="175" ry="177.745" fill="#000"/>
    <g clip-path="url(#jgjjp3786a)" fill="#fff">
        <path d="M76.072 188.023h17.362c7.997 0 13.688-4.395 14.697-10.447.865-5.187-2.377-8.645-7.132-8.789l.072-.36c4.394-.865 7.78-4.034 8.501-8.069.936-5.619-2.954-9.221-11.383-9.221H82.196l-6.124 36.886zm11.383-7.997 1.225-7.781h4.826c3.098 0 4.683 1.441 4.25 4.035-.36 2.449-2.305 3.746-5.618 3.746h-4.683zm2.305-13.976 1.153-7.061h4.25c2.45 0 4.107 1.225 3.746 3.53-.36 2.234-2.449 3.531-5.042 3.531H89.76zm46.97-14.913-3.782 22.765c-.541 3.422-3.422 5.908-6.88 5.908-3.422 0-5.476-2.486-4.935-5.908l3.782-22.765h-10.014l-3.926 23.63c-1.369 8.429 4.106 13.688 13.652 13.688 9.473 0 16.822-5.259 18.191-13.688l3.926-23.63H136.73zm45.515 0h-10.014l-3.169 19.307h-.289l-9.942-19.307h-8.501l-6.123 36.886h10.014l3.242-19.38h.216l10.086 19.38h8.357l6.123-36.886zm11.849 36.886c11.239 0 19.236-6.628 21.109-17.939 1.945-11.743-4.179-18.947-15.561-18.947h-13.833l-6.123 36.886h14.408zm-2.989-8.501 3.314-19.884h3.71c5.763 0 8.429 1.945 7.204 9.437-1.297 7.925-5.115 10.447-10.59 10.447h-3.638zm24.605 8.501h24.926l1.369-8.069h-14.913l4.755-28.817h-10.014l-6.123 36.886zm27.802 0h26.511l1.369-8.069h-16.498l1.009-6.34h15.201l1.369-8.069h-15.201l1.008-6.339h16.57l1.369-8.069h-26.584l-6.123 36.886zM80.533 136.819h9.613c4.427 0 7.578-2.433 8.136-5.783.48-2.872-1.316-4.787-3.948-4.866l.04-.2c2.433-.478 4.307-2.233 4.706-4.467.519-3.111-1.635-5.105-6.302-5.105h-8.855l-3.39 20.421zm6.302-4.427.678-4.308h2.673c1.715 0 2.592.798 2.353 2.234-.2 1.356-1.276 2.074-3.111 2.074h-2.593zm1.277-7.738.638-3.909h2.353c1.356 0 2.273.678 2.074 1.955-.2 1.236-1.356 1.954-2.792 1.954h-2.273zm31.947 2.313c1.157-6.98-2.712-10.849-8.416-10.849-5.424 0-10.25 3.55-11.327 10.211-1.157 6.94 2.712 10.77 8.456 10.77 5.384 0 10.171-3.471 11.287-10.132zm-5.584-.638c-.638 3.789-2.592 5.943-5.504 5.943-2.553 0-3.709-1.755-3.071-5.305.598-3.789 2.592-6.022 5.544-6.022 2.593 0 3.59 1.874 3.031 5.384zm27.284.638c1.157-6.98-2.712-10.849-8.416-10.849-5.425 0-10.251 3.55-11.328 10.211-1.157 6.94 2.712 10.77 8.456 10.77 5.385 0 10.171-3.471 11.288-10.132zm-5.584-.638c-.638 3.789-2.593 5.943-5.504 5.943-2.553 0-3.71-1.755-3.072-5.305.599-3.789 2.593-6.022 5.544-6.022 2.593 0 3.59 1.874 3.032 5.384zm6.979-5.464h6.142l-2.632 15.954h5.464l2.633-15.954h6.142l.758-4.467h-17.749l-.758 4.467zm29.876 1.914h5.305c.678-4.028-1.994-6.661-6.94-6.661-4.866 0-8.695 2.593-9.334 6.502-.518 3.191 1.396 4.946 4.867 5.743l1.954.439c2.194.479 2.912 1.077 2.752 1.994-.159.998-1.196 1.716-2.991 1.716-2.114 0-3.231-.998-2.992-2.872h-5.265c-.837 5.105 2.274 7.419 7.579 7.419 5.185 0 8.655-2.234 9.333-6.263.519-3.111-.997-5.304-5.345-6.262l-1.595-.359c-1.875-.399-2.673-.997-2.433-1.954.159-.917.997-1.556 2.712-1.556 1.795 0 2.513.798 2.393 2.114zm6.805-1.914h6.142l-2.632 15.954h5.464l2.633-15.954h6.142l.758-4.467h-17.75l-.757 4.467zm16.554 15.954h5.544l1.127-6.74h1.914l2.463 6.74h6.023l-2.882-7.618c2.344-1.047 3.979-3.031 4.438-5.863.718-4.348-1.875-6.94-6.422-6.94h-8.815l-3.39 20.421zm7.389-11.048.827-4.946h1.955c1.914 0 2.951.758 2.672 2.513-.279 1.755-1.555 2.433-3.51 2.433h-1.944zm16.297 11.048 1.835-3.909h6.731l.528 3.909h5.983l-3.35-20.421h-7.579l-10.131 20.421h5.983zm3.78-8.057 3.161-6.741h.159l.907 6.741h-4.227zm12.615 8.057h5.544l1.017-6.062h3.052c4.706 0 8.256-2.713 8.974-7.14.718-4.348-1.835-7.219-6.382-7.219h-8.815l-3.39 20.421zm7.279-10.37.938-5.624h1.954c1.954 0 2.912 1.037 2.633 2.792-.28 1.755-1.596 2.832-3.59 2.832h-1.935zm23.621 10.65c4.996 0 8.745-3.032 9.413-7.3.648-3.869-1.586-6.621-5.225-6.621-2.064 0-3.899.918-4.747 2.154h-.119l1.156-4.507h9.174l.718-4.427h-13.721l-2.672 11.247 4.707.958c.648-.997 1.804-1.596 2.991-1.596 1.685 0 2.682 1.157 2.393 2.952-.309 1.795-1.665 2.951-3.39 2.951-1.466 0-2.503-.917-2.314-2.313h-5.384c-.589 3.789 2.323 6.502 7.02 6.502z"/>
    </g>
    <g clip-path="url(#rvw2w7k66b)">
        <rect x="109" y="212.819" width="136" height="43" rx="21.5" fill="#fff"/>
        <path d="M137.129 237.555c0 1.396-.505 2.492-1.515 3.287-1.01.795-2.402 1.192-4.178 1.192-1.776 0-3.23-.276-4.362-.827v-2.428c.716.337 1.475.602 2.278.795.809.194 1.561.29 2.255.29 1.017 0 1.766-.193 2.246-.58.487-.387.73-.906.73-1.557 0-.588-.222-1.085-.666-1.494-.444-.408-1.361-.891-2.75-1.45-1.432-.58-2.442-1.242-3.029-1.987-.588-.745-.881-1.64-.881-2.686 0-1.31.465-2.341 1.396-3.093.931-.752 2.181-1.128 3.749-1.128 1.504 0 3.001.329 4.491.988l-.817 2.095c-1.396-.588-2.642-.881-3.738-.881-.831 0-1.461.182-1.891.548-.429.358-.644.834-.644 1.428 0 .409.086.759.258 1.053.171.287.454.559.848.817.394.257 1.103.598 2.127 1.02 1.153.48 1.998.927 2.535 1.343.537.415.931.884 1.182 1.407.251.523.376 1.139.376 1.848zm9.948 4.264-.505-1.654h-.086c-.572.723-1.149 1.217-1.729 1.482-.58.258-1.325.387-2.234.387-1.168 0-2.081-.315-2.74-.945-.651-.63-.977-1.522-.977-2.675 0-1.225.455-2.148 1.364-2.771.91-.623 2.295-.964 4.157-1.021l2.052-.064v-.634c0-.759-.179-1.325-.537-1.697-.351-.38-.899-.57-1.644-.57-.608 0-1.192.09-1.751.269-.558.179-1.095.39-1.611.634l-.816-1.805a8.612 8.612 0 0 1 2.116-.763 9.548 9.548 0 0 1 2.17-.268c1.511 0 2.65.329 3.416.988.773.659 1.16 1.694 1.16 3.104v8.003h-1.805zm-3.759-1.718c.916 0 1.65-.255 2.202-.763.558-.516.838-1.235.838-2.159v-1.032l-1.526.065c-1.189.043-2.055.243-2.599.601-.538.351-.806.892-.806 1.623 0 .529.157.941.473 1.235.315.286.787.43 1.418.43zm11.538 1.718-4.512-11.881h2.664l2.417 6.908c.416 1.16.666 2.098.752 2.814h.086c.064-.515.315-1.454.752-2.814l2.417-6.908h2.686l-4.534 11.881h-2.728zm13.998.215c-1.848 0-3.294-.537-4.34-1.611-1.038-1.082-1.557-2.568-1.557-4.458 0-1.941.483-3.466 1.45-4.576.967-1.11 2.295-1.665 3.985-1.665 1.568 0 2.807.476 3.717 1.428.909.953 1.364 2.263 1.364 3.932v1.364h-7.917c.036 1.153.348 2.041.935 2.664.587.616 1.414.924 2.481.924.702 0 1.354-.064 1.955-.193a10.5 10.5 0 0 0 1.955-.666v2.052a7.793 7.793 0 0 1-1.869.623c-.63.121-1.35.182-2.159.182zm-.462-10.398c-.802 0-1.447.254-1.933.762-.48.509-.767 1.25-.86 2.224h5.393c-.015-.981-.251-1.722-.709-2.224-.459-.508-1.089-.762-1.891-.762zm22.765 5.317c0 1.039-.379 1.894-1.139 2.568-.759.673-1.854 1.088-3.287 1.246v2.331h-1.428v-2.267c-1.776-.029-3.234-.301-4.372-.816v-2.267c.615.301 1.335.555 2.159.763.823.2 1.561.304 2.213.311v-4.017l-.903-.333c-1.174-.451-2.034-.989-2.578-1.612-.537-.63-.806-1.407-.806-2.331 0-.988.384-1.801 1.15-2.438.773-.638 1.819-1.024 3.137-1.16v-1.805h1.428v1.772c1.454.051 2.833.344 4.136.881l-.784 1.966a11.523 11.523 0 0 0-3.352-.795v3.91l.817.312c1.36.523 2.302 1.074 2.825 1.654.523.58.784 1.289.784 2.127zm-2.535.161c0-.415-.147-.755-.44-1.02-.287-.272-.77-.534-1.451-.784v3.426c1.261-.193 1.891-.734 1.891-1.622zm-5.081-6.606c0 .408.125.748.376 1.02.258.272.72.541 1.386.806v-3.341c-.573.086-1.01.262-1.311.527a1.262 1.262 0 0 0-.451.988zm19.53-.784c0 .995-.29 1.826-.87 2.492-.58.659-1.396 1.103-2.449 1.332v.086c1.26.157 2.206.551 2.836 1.181.63.623.945 1.454.945 2.493 0 1.511-.533 2.678-1.6 3.502-1.067.816-2.586 1.224-4.555 1.224-1.74 0-3.208-.283-4.404-.848v-2.246c.666.33 1.371.584 2.116.763a9.192 9.192 0 0 0 2.148.269c1.218 0 2.127-.226 2.729-.677.601-.451.902-1.149.902-2.095 0-.838-.333-1.454-.999-1.847-.666-.394-1.711-.591-3.137-.591h-1.364v-2.052h1.386c2.506 0 3.76-.867 3.76-2.6 0-.673-.219-1.192-.656-1.557-.436-.365-1.081-.548-1.933-.548a5.74 5.74 0 0 0-1.719.258c-.551.164-1.203.49-1.955.977l-1.235-1.761c1.439-1.06 3.111-1.59 5.016-1.59 1.583 0 2.818.34 3.706 1.02.888.681 1.332 1.619 1.332 2.815zm7.585 2.288c1.583 0 2.836.419 3.76 1.257.924.837 1.386 1.98 1.386 3.426 0 1.676-.526 2.987-1.579 3.932-1.046.938-2.535 1.407-4.469 1.407-1.754 0-3.133-.283-4.136-.848v-2.289a7.56 7.56 0 0 0 1.998.763 9.091 9.091 0 0 0 2.095.269c1.139 0 2.005-.255 2.6-.763.594-.508.891-1.253.891-2.234 0-1.877-1.196-2.815-3.588-2.815-.336 0-.751.036-1.246.108a13.58 13.58 0 0 0-1.299.225l-1.128-.666.601-7.67h8.164v2.245h-5.94l-.355 3.889c.251-.043.555-.093.913-.15.366-.058.81-.086 1.332-.086zm18.188 6.381h-2.116v3.426h-2.46v-3.426h-7.176v-1.945l7.176-10.377h2.46v10.227h2.116v2.095zm-4.576-2.095v-3.943c0-1.403.036-2.553.107-3.448h-.086c-.2.473-.515 1.046-.945 1.719l-3.899 5.672h4.823z" fill="#121212"/>
    </g>
    <defs>
        <clipPath id="jgjjp3786a">
            <path fill="#fff" transform="translate(76 109.819)" d="M0 0h201.493v90.203H0z"/>
        </clipPath>
        <clipPath id="rvw2w7k66b">
            <path fill="#fff" transform="translate(109 212.819)" d="M0 0h136v43H0z"/>
        </clipPath>
    </defs>
</svg>
