<svg width="350" height="353" viewBox="0 0 350 353" fill="none" xmlns="http://www.w3.org/2000/svg">
    <ellipse cx="175" cy="176.111" rx="175" ry="176.111" fill="#F68496"/>
    <g clip-path="url(#9yjkex00aa)" fill="#000">
        <path d="M71.081 196.091h19.533c8.996 0 15.399-4.944 16.533-11.752.973-5.835-2.674-9.725-8.023-9.887l.08-.406c4.945-.972 8.754-4.538 9.564-9.077 1.054-6.322-3.323-10.374-12.805-10.374H77.97l-6.889 41.496zm12.806-8.996 1.377-8.753h5.43c3.486 0 5.269 1.621 4.782 4.539-.405 2.755-2.593 4.214-6.321 4.214h-5.268zm2.593-15.723 1.297-7.943h4.782c2.755 0 4.62 1.378 4.214 3.971-.405 2.513-2.755 3.972-5.673 3.972h-4.62zm52.841-16.777-4.255 25.611c-.608 3.85-3.85 6.646-7.74 6.646-3.85 0-6.16-2.796-5.552-6.646l4.255-25.611h-11.265l-4.417 26.584c-1.54 9.482 4.619 15.399 15.358 15.399 10.658 0 18.925-5.917 20.465-15.399l4.417-26.584h-11.266zm51.205 0H179.26l-3.566 21.721h-.324l-11.185-21.721h-9.563l-6.889 41.496h11.265l3.648-21.802h.243l11.346 21.802h9.402l6.889-41.496zm13.33 41.496c12.644 0 21.64-7.456 23.747-20.181 2.188-13.21-4.701-21.315-17.506-21.315h-15.561l-6.889 41.496h16.209zm-3.363-9.563 3.728-22.37h4.174c6.484 0 9.482 2.189 8.105 10.618-1.459 8.915-5.755 11.752-11.914 11.752h-4.093zm27.68 9.563h28.043l1.54-9.077h-16.777l5.349-32.419h-11.266l-6.889 41.496zm31.278 0h29.825l1.54-9.077h-18.56l1.135-7.132h17.101l1.54-9.078h-17.101l1.134-7.132h18.641l1.54-9.077H266.34l-6.889 41.496zM81.104 141.819c5.88 0 10.064-3.467 11.043-9.385 1.018-6.144-2.186-9.913-8.141-9.913h-7.237l-3.204 19.298h7.539zm-1.565-4.447 1.734-10.404h1.941c3.016 0 4.41 1.018 3.77 4.938-.679 4.146-2.677 5.466-5.541 5.466h-1.904zm12.874 4.447h13.871l.716-4.221h-8.632l.528-3.317h7.953l.716-4.222h-7.953l.528-3.317h8.669l.716-4.221H95.616l-3.203 19.298zm24.336-19.298h-5.239l-3.204 19.298h5.239l3.204-19.298zm11.255 6.031h5.013c.641-3.807-1.884-6.295-6.558-6.295-4.599 0-8.217 2.45-8.82 6.144-.49 3.015 1.319 4.674 4.598 5.428l1.847.414c2.073.452 2.752 1.018 2.601 1.885-.151.942-1.131 1.621-2.827 1.621-1.998 0-3.053-.943-2.827-2.714h-4.975c-.792 4.824 2.148 7.01 7.161 7.01 4.9 0 8.18-2.11 8.82-5.917.49-2.94-.942-5.013-5.051-5.918l-1.507-.339c-1.772-.377-2.526-.943-2.299-1.847.15-.867.942-1.47 2.563-1.47 1.696 0 2.374.754 2.261 1.998zm12.914-6.031h-5.24l-3.204 19.298h5.24l3.204-19.298zm13.346 6.37h5.296c.245-3.873-2.817-6.634-7.369-6.634-5.211 0-10.026 3.581-11.081 9.951-1.009 6.106 2.195 9.875 7.821 9.875 5.06 0 9.188-3.091 10.064-8.368l.433-2.676h-8.556l-.603 3.732h3.487c-.311 1.677-1.772 2.751-4.128 2.751-2.704 0-3.675-1.997-3.109-5.39.546-3.345 2.572-5.314 5.22-5.314 1.63 0 2.431.754 2.525 2.073zm25.105-6.37h-5.239l-1.659 10.101h-.15l-5.202-10.101h-4.448l-3.204 19.298h5.24l1.696-10.139h.113l5.277 10.139h4.372l3.204-19.298zm15.923 6.031h5.013c.641-3.807-1.884-6.295-6.558-6.295-4.599 0-8.217 2.45-8.82 6.144-.49 3.015 1.319 4.674 4.598 5.428l1.847.414c2.073.452 2.752 1.018 2.601 1.885-.151.942-1.131 1.621-2.827 1.621-1.998 0-3.053-.943-2.827-2.714h-4.975c-.792 4.824 2.148 7.01 7.161 7.01 4.9 0 8.179-2.11 8.82-5.917.49-2.94-.942-5.013-5.051-5.918l-1.507-.339c-1.772-.377-2.526-.943-2.3-1.847.151-.867.943-1.47 2.564-1.47 1.696 0 2.374.754 2.261 1.998zm6.883-6.031 4.9 13.23-1.018 6.068h5.202l1.017-6.068 9.273-13.23h-5.843l-5.05 7.84h-.189l-2.45-7.84h-5.842zm29.854 6.031h5.013c.64-3.807-1.885-6.295-6.559-6.295-4.598 0-8.217 2.45-8.82 6.144-.49 3.015 1.319 4.674 4.599 5.428l1.847.414c2.073.452 2.751 1.018 2.6 1.885-.15.942-1.13 1.621-2.827 1.621-1.997 0-3.053-.943-2.827-2.714h-4.975c-.792 4.824 2.148 7.01 7.162 7.01 4.9 0 8.179-2.11 8.82-5.917.49-2.94-.943-5.013-5.051-5.918l-1.508-.339c-1.771-.377-2.525-.943-2.299-1.847.151-.867.942-1.47 2.563-1.47 1.696 0 2.375.754 2.262 1.998zm6.43-1.81h5.805l-2.488 15.077h5.164l2.487-15.077h5.805l.716-4.221h-16.773l-.716 4.221zm15.644 15.077h13.87l.717-4.221h-8.632l.528-3.317h7.953l.716-4.222h-7.953l.528-3.317h8.669l.716-4.221h-13.909l-3.203 19.298zm19.097-19.298-3.204 19.298h5.126l1.885-11.232h.151l2.45 11.082h3.09l6.107-11.007h.15l-1.846 11.157h5.126l3.204-19.298h-6.521l-6.295 10.931h-.226l-2.676-10.931H273.2z"/>
    </g>
    <g clip-path="url(#17h9jq48lb)">
        <rect x="115" y="221.819" width="136" height="43" rx="21.5" fill="#000"/>
        <path d="M143.129 246.555c0 1.396-.505 2.492-1.515 3.287-1.01.795-2.402 1.192-4.178 1.192-1.776 0-3.23-.276-4.362-.827v-2.428c.716.337 1.475.602 2.278.795.809.194 1.561.29 2.255.29 1.017 0 1.766-.193 2.246-.58.487-.387.73-.906.73-1.557 0-.588-.222-1.085-.666-1.494-.444-.408-1.361-.891-2.75-1.45-1.432-.58-2.442-1.242-3.029-1.987-.588-.745-.881-1.64-.881-2.686 0-1.31.465-2.341 1.396-3.093.931-.752 2.181-1.128 3.749-1.128 1.504 0 3.001.329 4.491.988l-.817 2.095c-1.396-.588-2.642-.881-3.738-.881-.831 0-1.461.182-1.891.548-.429.358-.644.834-.644 1.428 0 .409.086.759.258 1.053.171.287.454.559.848.817.394.257 1.103.598 2.127 1.02 1.153.48 1.998.927 2.535 1.343.537.415.931.884 1.182 1.407.251.523.376 1.139.376 1.848zm9.948 4.264-.505-1.654h-.086c-.572.723-1.149 1.217-1.729 1.482-.58.258-1.325.387-2.234.387-1.168 0-2.081-.315-2.74-.945-.651-.63-.977-1.522-.977-2.675 0-1.225.455-2.148 1.364-2.771.91-.623 2.295-.964 4.157-1.021l2.052-.064v-.634c0-.759-.179-1.325-.537-1.697-.351-.38-.899-.57-1.644-.57-.608 0-1.192.09-1.751.269-.558.179-1.095.39-1.611.634l-.816-1.805a8.612 8.612 0 0 1 2.116-.763 9.548 9.548 0 0 1 2.17-.268c1.511 0 2.65.329 3.416.988.773.659 1.16 1.694 1.16 3.104v8.003h-1.805zm-3.759-1.718c.916 0 1.65-.255 2.202-.763.558-.516.838-1.235.838-2.159v-1.032l-1.526.065c-1.189.043-2.055.243-2.599.601-.538.351-.806.892-.806 1.623 0 .529.157.941.473 1.235.315.286.787.43 1.418.43zm11.538 1.718-4.512-11.881h2.664l2.417 6.908c.416 1.16.666 2.098.752 2.814h.086c.064-.515.315-1.454.752-2.814l2.417-6.908h2.686l-4.534 11.881h-2.728zm13.998.215c-1.848 0-3.294-.537-4.34-1.611-1.038-1.082-1.557-2.568-1.557-4.458 0-1.941.483-3.466 1.45-4.576.967-1.11 2.295-1.665 3.985-1.665 1.568 0 2.807.476 3.717 1.428.909.953 1.364 2.263 1.364 3.932v1.364h-7.917c.036 1.153.348 2.041.935 2.664.587.616 1.414.924 2.481.924.702 0 1.354-.064 1.955-.193a10.5 10.5 0 0 0 1.955-.666v2.052a7.793 7.793 0 0 1-1.869.623c-.63.121-1.35.182-2.159.182zm-.462-10.398c-.802 0-1.447.254-1.933.762-.48.509-.767 1.25-.86 2.224h5.393c-.015-.981-.251-1.722-.709-2.224-.459-.508-1.089-.762-1.891-.762zm22.765 5.317c0 1.039-.379 1.894-1.139 2.568-.759.673-1.854 1.088-3.287 1.246v2.331h-1.428v-2.267c-1.776-.029-3.234-.301-4.372-.816v-2.267c.615.301 1.335.555 2.159.763.823.2 1.561.304 2.213.311v-4.017l-.903-.333c-1.174-.451-2.034-.989-2.578-1.612-.537-.63-.806-1.407-.806-2.331 0-.988.384-1.801 1.15-2.438.773-.638 1.819-1.024 3.137-1.16v-1.805h1.428v1.772c1.454.051 2.833.344 4.136.881l-.784 1.966a11.523 11.523 0 0 0-3.352-.795v3.91l.817.312c1.36.523 2.302 1.074 2.825 1.654.523.58.784 1.289.784 2.127zm-2.535.161c0-.415-.147-.755-.44-1.02-.287-.272-.77-.534-1.451-.784v3.426c1.261-.193 1.891-.734 1.891-1.622zm-5.081-6.606c0 .408.125.748.376 1.02.258.272.72.541 1.386.806v-3.341c-.573.086-1.01.262-1.311.527a1.262 1.262 0 0 0-.451.988zm16.888 11.311h-2.525v-10.14c0-1.211.029-2.17.086-2.879a8.446 8.446 0 0 1-.612.569c-.236.208-1.038.867-2.406 1.977l-1.268-1.601 4.619-3.631h2.106v15.705zm4.942-6.692c0-6.145 2.503-9.217 7.509-9.217.788 0 1.454.061 1.998.183v2.105c-.544-.157-1.174-.236-1.89-.236-1.683 0-2.947.451-3.792 1.353-.846.903-1.304 2.349-1.375 4.34h.128c.337-.58.81-1.027 1.418-1.343.609-.322 1.325-.483 2.149-.483 1.425 0 2.535.437 3.33 1.311.795.873 1.192 2.059 1.192 3.555 0 1.647-.462 2.951-1.385 3.91-.917.953-2.17 1.429-3.76 1.429-1.125 0-2.102-.268-2.933-.805-.831-.545-1.472-1.333-1.923-2.364-.444-1.038-.666-2.284-.666-3.738zm5.479 4.823c.866 0 1.532-.279 1.998-.838.473-.558.709-1.357.709-2.395 0-.903-.222-1.612-.666-2.127-.437-.516-1.096-.774-1.977-.774a3.24 3.24 0 0 0-1.504.355 2.71 2.71 0 0 0-1.085.956c-.265.401-.397.813-.397 1.235 0 1.01.272 1.862.816 2.557.552.687 1.254 1.031 2.106 1.031zm6.833-4.823c0-6.145 2.503-9.217 7.509-9.217.788 0 1.454.061 1.998.183v2.105c-.544-.157-1.175-.236-1.891-.236-1.683 0-2.947.451-3.792 1.353-.845.903-1.303 2.349-1.375 4.34h.129a3.428 3.428 0 0 1 1.418-1.343c.609-.322 1.325-.483 2.149-.483 1.425 0 2.535.437 3.33 1.311.795.873 1.192 2.059 1.192 3.555 0 1.647-.462 2.951-1.386 3.91-.916.953-2.17 1.429-3.76 1.429-1.124 0-2.101-.268-2.932-.805-.831-.545-1.472-1.333-1.923-2.364-.444-1.038-.666-2.284-.666-3.738zm5.479 4.823c.866 0 1.532-.279 1.998-.838.472-.558.709-1.357.709-2.395 0-.903-.222-1.612-.666-2.127-.437-.516-1.096-.774-1.977-.774-.544 0-1.046.119-1.504.355a2.71 2.71 0 0 0-1.085.956c-.265.401-.397.813-.397 1.235 0 1.01.272 1.862.816 2.557.551.687 1.253 1.031 2.106 1.031z" fill="#F68496"/>
    </g>
    <defs>
        <clipPath id="9yjkex00aa">
            <path fill="#fff" transform="translate(71 115.819)" d="M0 0h223.527v93.272H0z"/>
        </clipPath>
        <clipPath id="17h9jq48lb">
            <path fill="#fff" transform="translate(115 221.819)" d="M0 0h136v43H0z"/>
        </clipPath>
    </defs>
</svg>
